<svg width="18" height="18" viewBox="0 0 18 18" fill="none" xmlns="http://www.w3.org/2000/svg">
<path fill-rule="evenodd" clip-rule="evenodd" d="M11.6153 8.36229C11.7075 8.44115 11.7815 8.53905 11.8323 8.64925C11.883 8.75946 11.9093 8.87935 11.9093 9.00069C11.9093 9.12202 11.883 9.24192 11.8323 9.35212C11.7815 9.46233 11.7075 9.56023 11.6153 9.63909L7.86633 12.8521C7.74432 12.9567 7.59485 13.0242 7.43567 13.0464C7.27648 13.0686 7.11425 13.0447 6.96825 12.9775C6.82224 12.9103 6.69858 12.8026 6.61195 12.6672C6.52531 12.5318 6.47934 12.3744 6.47949 12.2137V5.78769C6.47948 5.62711 6.5255 5.46989 6.61209 5.33466C6.69868 5.19943 6.82222 5.09186 6.96807 5.02468C7.11392 4.9575 7.27597 4.93353 7.43502 4.95561C7.59407 4.9777 7.74346 5.04491 7.86549 5.14929L11.6153 8.36313V8.36229Z" fill="black"/>
</svg>
