<svg width="18" height="18" viewBox="0 0 18 18" fill="none" xmlns="http://www.w3.org/2000/svg">
<path fill-rule="evenodd" clip-rule="evenodd" d="M6.38475 9.63771C6.29253 9.55885 6.2185 9.46095 6.16773 9.35075C6.11697 9.24054 6.09068 9.12065 6.09068 8.99931C6.09068 8.87798 6.11697 8.75808 6.16773 8.64788C6.2185 8.53767 6.29253 8.43977 6.38475 8.36091L10.1337 5.14791C10.2557 5.04328 10.4051 4.97584 10.5643 4.95361C10.7235 4.93138 10.8857 4.95529 11.0318 5.0225C11.1778 5.08971 11.3014 5.1974 11.3881 5.33279C11.4747 5.46818 11.5207 5.62558 11.5205 5.78631V12.2123C11.5205 12.3729 11.4745 12.5301 11.3879 12.6653C11.3013 12.8006 11.1778 12.9081 11.0319 12.9753C10.8861 13.0425 10.724 13.0665 10.565 13.0444C10.4059 13.0223 10.2565 12.9551 10.1345 12.8507L6.38475 9.63687V9.63771Z" fill="black"/>
</svg>
