<svg width="17" height="17" viewBox="0 0 17 17" fill="none" xmlns="http://www.w3.org/2000/svg">
<path d="M15.4389 5.34478L6.93888 13.8448C6.86485 13.9191 6.77688 13.978 6.68002 14.0182C6.58316 14.0585 6.47931 14.0792 6.37443 14.0792C6.26955 14.0792 6.1657 14.0585 6.06884 14.0182C5.97198 13.978 5.88401 13.9191 5.80998 13.8448L2.09123 10.126C2.0171 10.0519 1.9583 9.96391 1.91819 9.86706C1.87807 9.77021 1.85742 9.66641 1.85742 9.56158C1.85742 9.45675 1.87807 9.35295 1.91819 9.2561C1.9583 9.15925 2.0171 9.07125 2.09123 8.99713C2.16535 8.923 2.25335 8.8642 2.3502 8.82408C2.44705 8.78397 2.55085 8.76332 2.65568 8.76332C2.76051 8.76332 2.86431 8.78397 2.96116 8.82408C3.05801 8.8642 3.14601 8.923 3.22013 8.99713L6.37509 12.1521L14.3113 4.2172C14.461 4.0675 14.664 3.9834 14.8758 3.9834C15.0875 3.9834 15.2905 4.0675 15.4402 4.2172C15.5899 4.3669 15.674 4.56994 15.674 4.78166C15.674 4.99337 15.5899 5.19641 15.4402 5.34611L15.4389 5.34478Z" fill="black"/>
</svg>
