<svg width="172" height="38" viewBox="0 0 172 38" fill="none" xmlns="http://www.w3.org/2000/svg">
<mask id="mask0_0_134" style="mask-type:luminance" maskUnits="userSpaceOnUse" x="0" y="0" width="172" height="38">
<path d="M171.827 0.2771H0.116425V37.9122H171.827V0.2771Z" fill="white"/>
</mask>
<g mask="url(#mask0_0_134)">
<path d="M45.8236 33.2298C45.8001 33.2766 45.7827 33.3173 45.7649 33.3465C45.2387 34.2275 44.636 35.0501 43.9166 35.7851C43.1736 36.5318 42.3431 37.1443 41.3546 37.5351C40.6643 37.8036 39.9564 37.9378 39.2134 37.9087C38.728 37.8911 38.2718 37.7686 37.8272 37.5877C37.0844 37.2902 36.3765 36.9168 35.6804 36.5259C33.9139 35.5168 32.2233 34.3851 30.5563 33.2184C30.4746 33.1599 30.3868 33.1016 30.3047 33.0374C30.2171 32.9733 30.1818 32.8916 30.2053 32.8099C30.2287 32.734 30.3107 32.6873 30.4217 32.6873C30.5329 32.6873 30.6441 32.6932 30.7611 32.699C31.3051 32.7166 31.8432 32.734 32.3872 32.7573C33.1945 32.7865 34.0016 32.8157 34.8147 32.8391C35.622 32.8682 36.4292 32.8974 37.2423 32.9207C38.0496 32.9498 38.8567 32.9789 39.6698 33.0023C40.4828 33.0315 41.2959 33.0608 42.109 33.084C42.9163 33.1133 43.7234 33.1425 44.5368 33.1658C44.9461 33.1773 45.3498 33.1949 45.7533 33.2124C45.7649 33.224 45.7885 33.224 45.8236 33.2298Z" fill="url(#paint0_radial_0_134)"/>
<path d="M4.69504 33.2184C4.894 33.2124 5.07531 33.2007 5.25663 33.1949C5.98189 33.1715 6.70715 33.1425 7.42672 33.1191C7.85385 33.1074 8.27489 33.0958 8.702 33.0782L10.6382 33.0082C11.0768 32.9916 11.5155 32.9781 11.9543 32.9675L13.8729 32.8974C14.2826 32.8856 14.6977 32.8742 15.1072 32.8565C15.8443 32.8331 16.5813 32.8039 17.3241 32.7749C17.9733 32.7515 18.6228 32.734 19.272 32.7106C19.506 32.7048 19.7401 32.6932 19.9739 32.6873H20.1552C20.2312 32.6932 20.2899 32.7283 20.3133 32.8039C20.3365 32.8742 20.3133 32.9324 20.2604 32.9849L20.1729 33.0548C18.3947 34.3092 16.593 35.5224 14.6977 36.5902C14.0778 36.9403 13.446 37.2668 12.7907 37.5351C12.1064 37.8212 11.3927 37.9319 10.6498 37.8793C9.97709 37.8268 9.33965 37.6344 8.73122 37.3368C7.98243 36.9693 7.32147 36.4735 6.72479 35.896C5.94092 35.1375 5.29192 34.274 4.74189 33.3349C4.73266 33.2938 4.71685 33.2544 4.69504 33.2184Z" fill="url(#paint1_radial_0_134)"/>
<path d="M25.9936 17.5075C25.9936 16.9649 25.9819 16.4225 25.9936 15.8856C26.0228 14.8647 26.052 13.8439 26.0989 12.8228C26.128 12.1812 26.1807 11.5395 26.2392 10.8979C26.327 9.88256 26.4439 8.86758 26.6018 7.8583C26.8359 6.35329 27.1401 4.85984 27.5847 3.3956C27.8302 2.60212 28.1109 1.82041 28.4854 1.07359C28.6024 0.840332 28.7427 0.618638 28.8657 0.391064C28.9184 0.29776 28.9827 0.280314 29.0821 0.29776C29.7079 0.42027 30.3338 0.531019 30.9539 0.653725C31.4688 0.758594 31.9717 0.898745 32.4572 1.1028C33.7617 1.64537 34.8029 2.5147 35.5925 3.68139C36.0897 4.41645 36.4524 5.22149 36.6455 6.09082C36.7389 6.50501 36.7741 6.93076 36.78 7.35669C36.8092 8.7392 36.5694 10.0868 36.1717 11.4052C35.7855 12.6887 35.2709 13.9254 34.7151 15.1448C33.9547 16.8015 33.0949 18.4116 32.194 19.9984C30.5854 22.816 28.8423 25.5523 26.9996 28.2241C26.9703 28.265 26.9411 28.3116 26.906 28.3465C26.8592 28.3991 26.8067 28.4282 26.7307 28.4049C26.6993 28.3958 26.6709 28.3787 26.6483 28.3552C26.6258 28.3315 26.6098 28.3025 26.6018 28.2708C26.5844 28.2007 26.5786 28.125 26.5726 28.0492C26.5143 27.384 26.4497 26.719 26.3971 26.0597C26.3327 25.2606 26.2684 24.4613 26.21 23.6621C26.1699 23.0986 26.1387 22.5347 26.1163 21.9704C26.0753 21.1127 26.0462 20.2551 26.011 19.3975C26.0051 19.1992 26.0051 18.995 25.9993 18.7966C25.9936 18.3649 25.9819 17.9392 25.9759 17.5075H25.9936Z" fill="url(#paint2_radial_0_134)"/>
<path d="M24.5369 17.7353C24.5137 18.6044 24.496 19.4797 24.4726 20.3488C24.455 20.9381 24.4317 21.5332 24.3965 22.1223C24.3498 22.9277 24.2971 23.7328 24.2386 24.5374C24.2035 25.0688 24.1626 25.5997 24.1157 26.1302C24.0691 26.6901 24.0105 27.2561 23.9579 27.8161C23.9462 27.9385 23.9344 28.067 23.9228 28.1894C23.9111 28.3119 23.8701 28.3704 23.7881 28.3938C23.6829 28.417 23.6186 28.3644 23.5659 28.2827C23.3261 27.9381 23.0883 27.592 22.8524 27.2445C21.2614 24.8876 19.7463 22.4839 18.3365 20.0105C17.6346 18.7795 16.9678 17.537 16.3417 16.271C15.6984 14.9584 15.1017 13.6284 14.6221 12.2457C14.3178 11.3707 14.0664 10.478 13.8909 9.56224C13.8031 9.10709 13.7563 8.65213 13.7329 8.18542C13.7094 7.72458 13.7212 7.26375 13.7682 6.80272C13.8674 5.88106 14.1367 5.0176 14.5929 4.20687C15.3005 2.95237 16.2774 1.97817 17.5645 1.31897C18.1844 0.998287 18.8396 0.782277 19.5181 0.648202C20.0795 0.537257 20.6352 0.432388 21.1968 0.321443C21.2906 0.303801 21.384 0.298117 21.4718 0.280671C21.5538 0.26891 21.6064 0.286552 21.6473 0.362214C21.7877 0.613115 21.9398 0.864016 22.0685 1.1208C22.5716 2.15322 22.9167 3.23836 23.2092 4.34683C23.4957 5.42609 23.7121 6.51693 23.8819 7.61951C23.9931 8.36634 24.0923 9.11316 24.1743 9.86547C24.2562 10.6299 24.3205 11.3999 24.373 12.1642C24.4259 12.9457 24.4608 13.7276 24.4842 14.5093C24.5077 15.1626 24.5137 15.8159 24.5251 16.4694C24.5311 16.8895 24.5251 17.3094 24.5251 17.7294C24.5311 17.7353 24.5311 17.7353 24.5369 17.7353Z" fill="url(#paint3_radial_0_134)"/>
<path d="M42.7113 6.91284C42.9043 7.10533 43.0856 7.28038 43.261 7.46699C44.1735 8.44119 44.975 9.503 45.6125 10.6758C46.0396 11.4573 46.3848 12.2741 46.5894 13.1375C46.9519 14.6835 46.8409 16.1945 46.1624 17.6412C45.7061 18.6153 45.0685 19.4612 44.2554 20.173C43.8108 20.5637 43.3722 20.9664 42.9159 21.3398C41.904 22.1623 40.8276 22.9032 39.7337 23.615C37.5518 25.0384 35.294 26.3335 32.9951 27.5587C31.6964 28.2527 30.3804 28.912 29.0759 29.5888C29.0408 29.6062 28.9998 29.6296 28.9589 29.6413C28.8186 29.6821 28.7074 29.5946 28.7309 29.4486C28.7366 29.3904 28.766 29.3319 28.7894 29.2794C29.0877 28.6553 29.3801 28.031 29.6785 27.4129C30.6961 25.339 31.7826 23.3 32.9366 21.2989C34.1364 19.2158 35.3986 17.1692 36.7213 15.1618C38.0606 13.1317 39.453 11.1364 40.9212 9.19389C41.4651 8.47059 42.0326 7.76454 42.5883 7.04692C42.6234 7.01791 42.6584 6.97695 42.7113 6.91284Z" fill="url(#paint4_radial_0_134)"/>
<path d="M7.81902 6.91284C7.98858 7.12278 8.15225 7.32115 8.31044 7.5254C9.83701 9.45635 11.282 11.4516 12.6683 13.4817C14.3879 15.9961 16.0083 18.5688 17.5234 21.2114C18.3657 22.6697 19.1728 24.1516 19.9449 25.6451C20.5708 26.8643 21.1792 28.0953 21.7524 29.3379C21.7701 29.3787 21.7875 29.4138 21.8052 29.4546C21.8461 29.5888 21.7466 29.7055 21.6062 29.6703C21.5537 29.6587 21.501 29.6296 21.4541 29.6062C19.9015 28.8363 18.3647 28.0349 16.8447 27.2027C15.1426 26.2752 13.458 25.3069 11.8142 24.2801C10.4045 23.3933 9.01806 22.4714 7.71356 21.4391C7.22823 21.0538 6.76602 20.6456 6.31558 20.2313C5.98235 19.9222 5.65461 19.613 5.36803 19.2572C4.60161 18.3063 4.06943 17.2445 3.84127 16.0427C3.64251 14.9752 3.7068 13.9193 4.00514 12.8751C4.2976 11.8656 4.75392 10.9265 5.30962 10.0397C5.99392 8.94887 6.79542 7.94545 7.69613 7.02948C7.73729 6.99459 7.77218 6.95949 7.81902 6.91284Z" fill="url(#paint5_radial_0_134)"/>
<path d="M49.9592 19.6543C49.9766 19.7067 49.9943 19.7476 50.0118 19.7942C50.2102 20.4271 50.3339 21.081 50.3804 21.7426C50.4798 23.1602 50.2808 24.537 49.7544 25.8555C49.3216 26.9347 48.6838 27.8915 47.8767 28.7375C47.1854 29.462 46.3791 30.0671 45.4901 30.5283C44.8292 30.8725 44.1329 31.1001 43.4136 31.2751C42.8287 31.4151 42.232 31.5142 41.6236 31.5084C41.2435 31.5084 40.869 31.526 40.4887 31.526C37.0843 31.5316 33.6859 31.5316 30.2815 31.5316H30.1294C30.0591 31.526 30.0006 31.4909 29.9773 31.4209C29.9481 31.351 29.9655 31.281 30.0182 31.2285C30.0533 31.1934 30.1002 31.1642 30.1411 31.1352C31.194 30.4582 32.247 29.7758 33.3114 29.1165C35.5402 27.7341 37.8038 26.4214 40.0853 25.1203C43.1326 23.3819 46.2036 21.6844 49.2922 20.0159C49.4737 19.9168 49.6549 19.8235 49.8362 19.7242C49.8654 19.7007 49.9065 19.6833 49.9592 19.6543Z" fill="url(#paint6_radial_0_134)"/>
<path d="M0.571627 19.6831C0.788029 19.7999 0.98679 19.899 1.17987 20.0099C4.64289 21.8708 8.08238 23.7668 11.4925 25.7268C13.7212 27.0045 15.9381 28.3055 18.1142 29.6705C18.8864 30.1549 19.6468 30.6564 20.4129 31.1524C20.4539 31.1816 20.5008 31.2107 20.5299 31.2457C20.6177 31.3508 20.5651 31.4966 20.4307 31.5258C20.3955 31.5314 20.3546 31.5314 20.3195 31.5314C19.6936 31.5314 19.0676 31.5314 18.4357 31.5374C17.5878 31.5432 16.7456 31.5432 15.8974 31.5491C15.3299 31.5491 14.7624 31.5548 14.2008 31.5548C13.0251 31.5548 11.8494 31.5607 10.6796 31.5607C10.1063 31.5607 9.53878 31.5665 8.96563 31.5432C7.92439 31.5082 6.91237 31.3098 5.94149 30.9307C3.8298 30.1024 2.25639 28.673 1.1683 26.6953C0.676888 25.7971 0.372671 24.8402 0.220562 23.831C0.115302 23.1192 0.0860953 22.4076 0.150389 21.6958C0.203026 21.0541 0.326617 20.4201 0.518899 19.8056C0.536541 19.7648 0.548302 19.7356 0.571627 19.6831Z" fill="url(#paint7_radial_0_134)"/>
<path d="M88.3846 31.9322C88.0574 31.8798 87.7169 31.8406 87.3897 31.7883C86.1458 31.5919 84.9805 31.1859 83.9462 30.4267C82.6501 29.4709 81.8513 28.1616 81.4193 26.6297C81.1314 25.6216 81.0265 24.6004 81.0265 23.5529V13.1182V12.8171C81.2755 12.7385 84.4568 12.7253 84.8364 12.804V23.5923C84.8364 24.3385 84.9413 25.0716 85.2032 25.7787C85.74 27.219 86.8135 28.0044 88.3062 28.227C89.0787 28.345 89.851 28.3054 90.6103 28.1093C91.8149 27.782 92.6397 27.0356 93.098 25.8705C93.3862 25.1242 93.4776 24.3254 93.4776 23.5269V13.1836V12.8171C93.7265 12.7385 96.9079 12.7122 97.2615 12.7908C97.2615 12.8825 97.2745 12.9872 97.2745 13.0919C97.2745 16.6268 97.2877 20.1488 97.2745 23.6839C97.2745 24.9539 97.0652 26.1846 96.5938 27.3628C95.7166 29.5755 94.0929 30.9634 91.8149 31.5656C91.2913 31.7097 90.7412 31.7489 90.2046 31.8406C90.0868 31.8537 89.9819 31.8798 89.8642 31.9062C89.3929 31.9322 88.8952 31.9322 88.3846 31.9322ZM142.064 12.7777H145.966C145.94 12.8955 145.914 13.0133 145.874 13.105C145.194 15.0558 144.513 17.0196 143.832 18.9707C142.418 23.0423 141.004 27.1141 139.577 31.1859C139.407 31.6965 139.511 31.6311 138.948 31.6443H136.526C136.238 31.6443 136.238 31.6443 136.134 31.3561C134.772 27.4414 133.423 23.5269 132.062 19.612C132.023 19.5205 131.983 19.4287 131.918 19.2454C131.852 19.4027 131.813 19.4944 131.774 19.5859C131.132 21.4449 130.477 23.3042 129.836 25.1634C129.129 27.2059 128.422 29.2612 127.715 31.3037C127.597 31.6572 127.649 31.6572 127.23 31.6572H124.743C124.429 31.6572 124.429 31.6572 124.324 31.3561C122.203 25.268 120.082 19.1669 117.948 13.0788C117.922 13.0004 117.895 12.9217 117.869 12.8171H121.902C123.276 17.0983 124.664 21.3927 126.039 25.7H126.105C126.131 25.6216 126.17 25.543 126.196 25.4513C127.558 21.3535 128.906 17.2421 130.268 13.1442C130.294 13.0788 130.32 13.0004 130.333 12.9349C130.36 12.8169 130.451 12.7645 130.569 12.7645C131.512 12.7645 132.455 12.7645 133.397 12.7777C133.423 12.7777 133.463 12.7908 133.515 12.8169C134.929 17.0852 136.343 21.3795 137.757 25.674C137.901 25.6216 137.901 25.5037 137.94 25.4121C138.307 24.2992 138.66 23.1863 139.014 22.0735C139.983 19.0621 140.952 16.0638 141.921 13.0527C141.986 12.9478 142.025 12.8694 142.064 12.7777ZM59.3847 31.5788V12.7908H63.1685C63.1685 12.9086 63.1817 13.0266 63.1817 13.1444V20.3585H71.862C71.875 20.2275 71.8881 20.0966 71.8881 19.9657V13.1836V12.7908H75.6456C75.7112 13.0004 75.7374 31.1728 75.672 31.5788C75.4101 31.6573 72.2153 31.6573 71.8881 31.5656V23.9983C71.587 23.9197 63.5089 23.9197 63.1945 23.9983V31.5656C62.8674 31.6573 59.6726 31.6573 59.3847 31.5788ZM163.367 28.214V31.5526C163.105 31.618 149.528 31.6311 149.2 31.5656C149.122 31.3169 149.122 13.1182 149.187 12.804C149.423 12.7385 162.672 12.7255 163.012 12.7908V16.1294C162.868 16.1426 162.725 16.1556 162.581 16.1556H152.918V20.0442H159.791C159.897 20.319 159.911 23.1341 159.806 23.4745H152.958C152.879 23.7756 152.866 27.8866 152.958 28.2009C156.401 28.214 159.857 28.214 163.367 28.214ZM119.244 31.5919C119.1 31.6051 119.008 31.6048 118.917 31.6048C117.804 31.6048 116.691 31.5919 115.591 31.618C115.329 31.618 115.225 31.5264 115.133 31.3037C114.675 30.2041 114.19 29.1174 113.732 28.0175C113.627 27.782 113.51 27.6903 113.248 27.6903C110.577 27.7033 107.906 27.7033 105.235 27.6903C104.986 27.6903 104.868 27.7557 104.764 27.9914C104.305 29.0911 103.808 30.1778 103.336 31.2645C103.284 31.3693 103.245 31.4742 103.193 31.5788H99.3303C99.3827 31.461 99.4087 31.3561 99.4481 31.2645C101.098 27.5331 102.734 23.8018 104.384 20.0574C105.421 17.7104 106.455 15.3625 107.487 13.0135C107.579 12.8171 107.67 12.7253 107.906 12.7253C108.822 12.7385 109.752 12.7385 110.669 12.7253C110.93 12.7253 111.035 12.8171 111.14 13.0396C112.37 15.8544 113.601 18.6564 114.832 21.4581C116.259 24.692 117.673 27.939 119.1 31.1728C119.126 31.3169 119.179 31.4346 119.244 31.5919ZM112.109 24.247C112.083 24.1684 112.069 24.0898 112.03 24.0243C111.834 23.5661 111.637 23.0949 111.441 22.6365C110.76 21.0392 110.066 19.4552 109.372 17.8576C109.333 17.766 109.32 17.6351 109.176 17.5696C108.22 19.7955 107.277 22.0082 106.322 24.2338C106.636 24.3122 111.807 24.3254 112.109 24.247ZM168.04 12.7516H171.679L171.72 12.7908C171.733 12.804 171.733 12.804 171.733 12.8171C171.745 18.9443 171.745 25.0716 171.745 31.1991C171.745 31.3037 171.745 31.4085 171.733 31.5134C171.733 31.5264 171.72 31.5526 171.694 31.5788H168.015C168.04 25.3075 168.04 19.0492 168.04 12.7516Z" fill="black"/>
</g>
<defs>
<radialGradient id="paint0_radial_0_134" cx="0" cy="0" r="1" gradientUnits="userSpaceOnUse" gradientTransform="translate(31.6747 5.32376) rotate(120.721) scale(37.9004 38.7958)">
<stop stop-color="#F7BFA4"/>
<stop offset="0.234" stop-color="#E76C44"/>
<stop offset="0.421" stop-color="#E50012"/>
<stop offset="0.704" stop-color="#CA000C"/>
<stop offset="0.96" stop-color="#A00000"/>
</radialGradient>
<radialGradient id="paint1_radial_0_134" cx="0" cy="0" r="1" gradientUnits="userSpaceOnUse" gradientTransform="translate(31.674 5.32378) rotate(120.721) scale(37.9004 38.7958)">
<stop stop-color="#F7BFA4"/>
<stop offset="0.234" stop-color="#E76C44"/>
<stop offset="0.421" stop-color="#E50012"/>
<stop offset="0.704" stop-color="#CA000C"/>
<stop offset="0.96" stop-color="#A00000"/>
</radialGradient>
<radialGradient id="paint2_radial_0_134" cx="0" cy="0" r="1" gradientUnits="userSpaceOnUse" gradientTransform="translate(31.6743 5.32331) rotate(120.721) scale(37.9004 38.7958)">
<stop stop-color="#F7BFA4"/>
<stop offset="0.234" stop-color="#E76C44"/>
<stop offset="0.421" stop-color="#E50012"/>
<stop offset="0.704" stop-color="#CA000C"/>
<stop offset="0.96" stop-color="#A00000"/>
</radialGradient>
<radialGradient id="paint3_radial_0_134" cx="0" cy="0" r="1" gradientUnits="userSpaceOnUse" gradientTransform="translate(31.6744 5.32366) rotate(120.721) scale(37.9004 38.7958)">
<stop stop-color="#F7BFA4"/>
<stop offset="0.234" stop-color="#E76C44"/>
<stop offset="0.421" stop-color="#E50012"/>
<stop offset="0.704" stop-color="#CA000C"/>
<stop offset="0.96" stop-color="#A00000"/>
</radialGradient>
<radialGradient id="paint4_radial_0_134" cx="0" cy="0" r="1" gradientUnits="userSpaceOnUse" gradientTransform="translate(31.6741 5.32285) rotate(120.721) scale(37.9004 38.7958)">
<stop stop-color="#F7BFA4"/>
<stop offset="0.234" stop-color="#E76C44"/>
<stop offset="0.421" stop-color="#E50012"/>
<stop offset="0.704" stop-color="#CA000C"/>
<stop offset="0.96" stop-color="#A00000"/>
</radialGradient>
<radialGradient id="paint5_radial_0_134" cx="0" cy="0" r="1" gradientUnits="userSpaceOnUse" gradientTransform="translate(31.6742 5.32285) rotate(120.721) scale(37.9004 38.7958)">
<stop stop-color="#F7BFA4"/>
<stop offset="0.234" stop-color="#E76C44"/>
<stop offset="0.421" stop-color="#E50012"/>
<stop offset="0.704" stop-color="#CA000C"/>
<stop offset="0.96" stop-color="#A00000"/>
</radialGradient>
<radialGradient id="paint6_radial_0_134" cx="0" cy="0" r="1" gradientUnits="userSpaceOnUse" gradientTransform="translate(31.6746 5.32324) rotate(120.721) scale(37.9004 38.7958)">
<stop stop-color="#F7BFA4"/>
<stop offset="0.234" stop-color="#E76C44"/>
<stop offset="0.421" stop-color="#E50012"/>
<stop offset="0.704" stop-color="#CA000C"/>
<stop offset="0.96" stop-color="#A00000"/>
</radialGradient>
<radialGradient id="paint7_radial_0_134" cx="0" cy="0" r="1" gradientUnits="userSpaceOnUse" gradientTransform="translate(31.6743 5.32304) rotate(120.721) scale(37.9004 38.7958)">
<stop stop-color="#F7BFA4"/>
<stop offset="0.234" stop-color="#E76C44"/>
<stop offset="0.421" stop-color="#E50012"/>
<stop offset="0.704" stop-color="#CA000C"/>
<stop offset="0.96" stop-color="#A00000"/>
</radialGradient>
</defs>
</svg>
