<svg width="211" height="162" viewBox="0 0 211 162" fill="none" xmlns="http://www.w3.org/2000/svg">
<path d="M22.9302 42.7041L38.3882 148.657L174.868 128.736C175.545 128.637 176.196 128.407 176.784 128.056C177.371 127.706 177.884 127.244 178.293 126.695C178.702 126.147 178.998 125.523 179.166 124.86C179.334 124.197 179.369 123.507 179.27 122.83L166.078 32.4221C165.76 30.2681 163.864 28.7561 161.835 29.0481L68.7762 42.6301C67.5562 42.8091 66.3232 42.3321 65.4882 41.357L59.4882 35.1261C58.6472 34.1511 57.4202 33.6741 56.2012 33.8531L26.0312 38.2551C23.9972 38.5531 22.6112 40.5421 22.9292 42.7031L22.9302 42.7041Z" fill="#E2B728"/>
<path d="M175.77 128.603L38.3877 148.656L48.7497 61.65C48.9547 59.906 50.2277 58.547 51.8647 58.309L185.86 38.752C188.3 38.394 190.428 40.628 190.116 43.22L180.537 123.717C180.389 124.941 179.842 126.083 178.98 126.966C178.119 127.849 176.991 128.424 175.771 128.602L175.77 128.603Z" fill="#F5C423"/>
<path d="M134.391 86.4161C130.241 96.9431 118.846 111.295 116.386 114.325C113.33 111.176 95.2986 92.0641 99.6876 82.6901C105.521 70.2481 115.266 80.7081 117.447 83.2941C118.786 81.4641 122.737 76.3801 126.84 74.2721C129.989 72.6271 133.224 72.7601 135.418 77.4801C136.393 79.5681 135.823 82.7701 134.391 86.4161Z" fill="white"/>
<path d="M148.261 80.296C151.592 74.55 150.467 67.675 145.748 64.938C141.029 62.202 134.503 64.641 131.171 70.387C127.84 76.132 128.965 83.008 133.684 85.744C138.404 88.481 144.93 86.041 148.261 80.296Z" fill="#EB1919"/>
<path d="M141.975 69.9829C140.947 68.7029 139.144 69.0079 138.03 70.6059C137.063 71.9909 136.095 74.0329 136.002 76.7509C135.936 78.7589 136.38 79.9719 136.983 80.7079C138.097 82.0609 140.032 81.7289 141.305 80.1049C142.28 78.8649 143.334 76.9759 143.413 74.5829C143.493 72.4619 142.77 70.9699 141.975 69.9829Z" stroke="white" stroke-width="1.701" stroke-miterlimit="10"/>
<path d="M166.728 36.843L166.111 32.587C165.8 30.427 163.904 28.915 161.875 29.207L69.5188 42.523C68.8288 42.623 98.1168 45.029 125.528 43.683C146.715 42.636 166.907 38.082 166.728 36.843Z" fill="#E2B728"/>
</svg>