<svg width="24" height="18" viewBox="0 0 24 18" fill="none" xmlns="http://www.w3.org/2000/svg">
<path d="M23.0162 4.61848L12.9722 0.368477C12.6635 0.238636 12.332 0.171753 11.9972 0.171753C11.6623 0.171753 11.3308 0.238636 11.0222 0.368477L0.978156 4.61848C0.706676 4.73331 0.475046 4.92558 0.312197 5.17128C0.149348 5.41698 0.0625 5.70521 0.0625 5.99998C0.0625 6.29474 0.149348 6.58298 0.312197 6.82868C0.475046 7.07437 0.706676 7.26665 0.978156 7.38148L4.49816 8.86998V13.6565C4.49545 14.0863 4.60467 14.5094 4.81508 14.8841C5.02548 15.2589 5.32982 15.5725 5.69816 15.794C7.60962 16.9115 9.78396 17.5005 11.9982 17.5005C14.2123 17.5005 16.3867 16.9115 18.2982 15.794C18.6665 15.5725 18.9708 15.2589 19.1812 14.8841C19.3916 14.5094 19.5009 14.0863 19.4982 13.6565V8.86998L20.9982 8.23498V10.606C20.7973 10.6929 20.6229 10.8313 20.4927 11.0072C20.3624 11.1831 20.2809 11.3903 20.2563 11.6078C20.2317 11.8253 20.2649 12.0454 20.3526 12.2459C20.4402 12.4465 20.5793 12.6204 20.7557 12.75C20.5988 12.8654 20.4711 13.016 20.383 13.1896C20.2949 13.3633 20.2487 13.5552 20.2482 13.75V15C20.2482 15.1326 20.3008 15.2598 20.3946 15.3535C20.4884 15.4473 20.6155 15.5 20.7482 15.5H22.2482C22.3808 15.5 22.5079 15.4473 22.6017 15.3535C22.6955 15.2598 22.7482 15.1326 22.7482 15V13.75C22.7476 13.5552 22.7015 13.3633 22.6133 13.1896C22.5252 13.016 22.3975 12.8654 22.2407 12.75C22.417 12.6204 22.5561 12.4465 22.6437 12.2459C22.7314 12.0454 22.7647 11.8253 22.7401 11.6078C22.7155 11.3903 22.6339 11.1831 22.5036 11.0072C22.3734 10.8313 22.199 10.6929 21.9982 10.606V7.81198L23.0162 7.38148C23.2876 7.26665 23.5193 7.07437 23.6821 6.82868C23.845 6.58298 23.9318 6.29474 23.9318 5.99998C23.9318 5.70521 23.845 5.41698 23.6821 5.17128C23.5193 4.92558 23.2876 4.73331 23.0162 4.61848ZM21.7482 11.75C21.7482 11.7994 21.7335 11.8478 21.706 11.8889C21.6786 11.93 21.6395 11.962 21.5938 11.9809C21.5481 11.9999 21.4979 12.0048 21.4494 11.9952C21.4009 11.9855 21.3563 11.9617 21.3214 11.9268C21.2864 11.8918 21.2626 11.8472 21.253 11.7987C21.2433 11.7503 21.2483 11.7 21.2672 11.6543C21.2861 11.6086 21.3181 11.5696 21.3593 11.5421C21.4004 11.5146 21.4487 11.5 21.4982 11.5C21.5645 11.5 21.628 11.5263 21.6749 11.5732C21.7218 11.6201 21.7482 11.6837 21.7482 11.75ZM21.7482 14.5H21.2482V13.75C21.2482 13.6837 21.2745 13.6201 21.3214 13.5732C21.3683 13.5263 21.4319 13.5 21.4982 13.5C21.5645 13.5 21.628 13.5263 21.6749 13.5732C21.7218 13.6201 21.7482 13.6837 21.7482 13.75V14.5ZM18.4982 13.6565C18.5011 13.9122 18.4373 14.1643 18.3133 14.3879C18.1892 14.6115 18.0091 14.799 17.7907 14.932C16.0329 15.9588 14.0338 16.4999 11.9982 16.4999C9.96248 16.4999 7.96338 15.9588 6.20566 14.932C5.98718 14.799 5.80706 14.6115 5.68301 14.3879C5.55897 14.1643 5.49526 13.9122 5.49816 13.6565V9.29298L11.0242 11.631C11.3328 11.761 11.6643 11.8279 11.9992 11.8279C12.334 11.8279 12.6655 11.761 12.9742 11.631L18.4982 9.29298V13.6565ZM22.6267 6.46048L12.5827 10.7105C12.3976 10.7882 12.1989 10.8282 11.9982 10.8282C11.7974 10.8282 11.5987 10.7882 11.4137 10.7105L1.36966 6.46048C1.27916 6.4222 1.20195 6.35811 1.14767 6.27621C1.09339 6.19431 1.06444 6.09823 1.06444 5.99998C1.06444 5.90172 1.09339 5.80564 1.14767 5.72374C1.20195 5.64184 1.27916 5.57775 1.36966 5.53948L11.4137 1.28948C11.5987 1.21159 11.7974 1.17147 11.9982 1.17147C12.1989 1.17147 12.3976 1.21159 12.5827 1.28948L22.6267 5.53948C22.7171 5.57775 22.7944 5.64184 22.8486 5.72374C22.9029 5.80564 22.9319 5.90172 22.9319 5.99998C22.9319 6.09823 22.9029 6.19431 22.8486 6.27621C22.7944 6.35811 22.7171 6.4222 22.6267 6.46048Z" fill="#71767E"/>
</svg>
