<svg width="33" height="33" viewBox="0 0 33 33" fill="none" xmlns="http://www.w3.org/2000/svg">
<path d="M16.1997 3.11664C20.4815 3.11664 21.0654 3.11664 22.817 3.11664C24.374 3.11664 25.1525 3.50589 25.7364 3.70051C26.5149 4.08976 27.0987 4.28439 27.6826 4.86826C28.2665 5.45213 28.6557 6.03601 28.8504 6.81451C29.045 7.39838 29.2396 8.17688 29.4342 9.73388C29.4342 11.4855 29.4342 11.8747 29.4342 16.3511C29.4342 20.8275 29.4342 21.2167 29.4342 22.9684C29.4342 24.5254 29.045 25.3038 28.8504 25.8877C28.4611 26.6662 28.2665 27.2501 27.6826 27.834C27.0987 28.4178 26.5149 28.8071 25.7364 29.0017C25.1525 29.1963 24.374 29.391 22.817 29.5856C21.0654 29.5856 20.6761 29.5856 16.1997 29.5856C11.7234 29.5856 11.3341 29.5856 9.58251 29.5856C8.02551 29.5856 7.24701 29.1963 6.66314 29.0017C5.88464 28.6125 5.30077 28.4178 4.71689 27.834C4.13302 27.2501 3.74377 26.6662 3.54914 25.8877C3.35452 25.3038 3.15989 24.5254 2.96527 22.9684C2.96527 21.2167 2.96527 20.8275 2.96527 16.3511C2.96527 11.8747 2.96527 11.4855 2.96527 9.73388C2.96527 8.17688 3.35452 7.39838 3.54914 6.81451C3.93839 6.03601 4.13302 5.45213 4.71689 4.86826C5.30077 4.28439 5.88464 3.89513 6.66314 3.70051C7.24701 3.50589 8.02551 3.31126 9.58251 3.11664C11.3341 3.11664 11.918 3.11664 16.1997 3.11664ZM16.1997 0.197266C11.7234 0.197266 11.3341 0.197266 9.58251 0.197266C7.83089 0.197266 6.66314 0.586516 5.69002 0.975765C4.71689 1.36501 3.74377 1.94889 2.77064 2.92201C1.79752 3.89514 1.40827 4.67363 0.824398 5.84138C0.435149 6.81451 0.240523 7.98225 0.0458984 9.73388C0.0458984 11.4855 0.0458984 12.0694 0.0458984 16.3511C0.0458984 20.8275 0.0458984 21.2167 0.0458984 22.9684C0.0458984 24.72 0.435149 25.8877 0.824398 26.8608C1.21365 27.834 1.79752 28.8071 2.77064 29.7802C3.74377 30.7533 4.52227 31.1426 5.69002 31.7265C6.66314 32.1157 7.83089 32.3103 9.58251 32.505C11.3341 32.505 11.918 32.505 16.1997 32.505C20.4815 32.505 21.0654 32.505 22.817 32.505C24.5686 32.505 25.7364 32.1157 26.7095 31.7265C27.6826 31.3372 28.6557 30.7533 29.6288 29.7802C30.602 28.8071 30.9912 28.0286 31.5751 26.8608C31.9643 25.8877 32.159 24.72 32.3536 22.9684C32.3536 21.2167 32.3536 20.6329 32.3536 16.3511C32.3536 12.0694 32.3536 11.4855 32.3536 9.73388C32.3536 7.98225 31.9643 6.81451 31.5751 5.84138C31.1858 4.86826 30.602 3.89514 29.6288 2.92201C28.6557 1.94889 27.8772 1.55964 26.7095 0.975765C25.7364 0.586516 24.5686 0.39189 22.817 0.197266C21.0654 0.197266 20.6761 0.197266 16.1997 0.197266Z" fill="white"/>
<path d="M16.1997 7.98225C11.5288 7.98225 7.83089 11.6801 7.83089 16.3511C7.83089 21.0221 11.5288 24.72 16.1997 24.72C20.8707 24.72 24.5686 21.0221 24.5686 16.3511C24.5686 11.6801 20.8707 7.98225 16.1997 7.98225ZM16.1997 21.8006C13.2804 21.8006 10.7503 19.4651 10.7503 16.3511C10.7503 13.4317 13.0858 10.9016 16.1997 10.9016C19.1191 10.9016 21.6492 13.2371 21.6492 16.3511C21.6492 19.2705 19.1191 21.8006 16.1997 21.8006Z" fill="white"/>
<path d="M24.7632 9.73388C25.8381 9.73388 26.7095 8.86251 26.7095 7.78763C26.7095 6.71275 25.8381 5.84138 24.7632 5.84138C23.6883 5.84138 22.817 6.71275 22.817 7.78763C22.817 8.86251 23.6883 9.73388 24.7632 9.73388Z" fill="white"/>
</svg>
