<svg width="46" height="55" viewBox="0 0 46 55" fill="none" xmlns="http://www.w3.org/2000/svg">
<g clip-path="url(#clip0_0_91)">
<path d="M45.1622 39.581C43.9384 42.2991 43.3486 43.5141 41.7746 45.9129C39.5707 49.2651 36.4625 53.4509 32.6226 53.4774C29.2039 53.5085 28.3215 51.2472 23.679 51.287C19.041 51.3092 18.0743 53.5218 14.6512 53.4863C10.8069 53.4509 7.86707 49.6818 5.66332 46.3342C-0.500055 36.9471 -1.15186 25.9418 2.65701 20.0888C5.35293 15.9385 9.6141 13.4997 13.6181 13.4997C17.6974 13.4997 20.2604 15.739 23.6303 15.739C26.9026 15.739 28.8935 13.4953 33.6113 13.4953C37.1763 13.4953 40.9454 15.4375 43.6413 18.7896C34.8263 23.6227 36.2586 36.2111 45.1622 39.581ZM30.0286 9.74848C31.7446 7.54475 33.0483 4.43644 32.5738 1.27051C29.7759 1.46117 26.5036 3.24811 24.5925 5.5627C22.8587 7.67333 21.4221 10.8038 21.9808 13.8323C25.0359 13.9298 28.1973 12.1074 30.0286 9.74848Z" fill="black"/>
</g>
<defs>
<clipPath id="clip0_0_91">
<rect width="45.4051" height="53.9185" fill="white" transform="translate(0.293945 0.134766)"/>
</clipPath>
</defs>
</svg>
