<svg width="116" height="46" viewBox="0 0 116 46" fill="none" xmlns="http://www.w3.org/2000/svg">
<g clip-path="url(#clip0_0_120)">
<path d="M86.8628 0.178711C86.3127 0.178711 85.8667 0.626419 85.8667 1.17862V25.936C85.8667 26.4753 86.2928 26.9145 86.8259 26.9321H93.0752C93.6078 26.9145 94.0339 26.4753 94.0339 25.936V13.2681L105.169 26.9321H112.412C112.962 26.9321 113.407 26.4847 113.407 25.9329V1.17862C113.407 0.626736 112.962 0.179339 112.412 0.179339H106.254C105.704 0.179339 105.258 0.626736 105.258 1.17862V13.8409L93.9984 0.178711H86.8628ZM62.0259 0.178711H41.8611C41.2539 0.178711 40.7618 0.672645 40.7618 1.28216V13.5556V25.8293C40.7618 26.4269 41.2353 26.9135 41.8261 26.9321H82.2256C82.8164 26.9135 83.2899 26.4269 83.2899 25.8293V13.5556V1.28216C83.2899 0.672645 82.7978 0.178711 82.1904 0.178711H62.0259ZM74.5186 7.3326C74.7309 7.30094 74.9201 7.464 74.9201 7.67964V19.4317C74.9201 19.6472 74.7309 19.8103 74.5186 19.7787C72.3691 19.4597 67.2007 19.3268 62.0259 19.3426C56.8506 19.3268 51.6826 19.4597 49.5328 19.7787C49.3209 19.8103 49.1312 19.6472 49.1312 19.4317V7.67964C49.1312 7.464 49.3209 7.30094 49.5328 7.3326C51.6826 7.65145 56.8506 7.78412 62.0259 7.76859C62.293 7.76955 62.5608 7.76987 62.8276 7.76987C67.7272 7.76987 72.4801 7.63498 74.5186 7.3326ZM19.3335 0.178711C19.0863 0.178711 18.855 0.302193 18.7173 0.508636L13.1954 9.92927H9.97724V1.17862C9.97724 0.626736 9.53156 0.179339 8.9818 0.179339H2.55281C2.00305 0.179339 1.55737 0.626736 1.55737 1.17862V25.9332C1.55737 26.4737 1.98507 26.9145 2.51937 26.9321H9.01524C9.54954 26.9145 9.97724 26.4737 9.97724 25.9332V17.219H13.8968L19.3797 26.5694C19.5086 26.7865 19.7383 26.9224 19.9883 26.9321H27.5298C28.0918 26.9109 28.4307 26.2862 28.1332 25.7987L20.644 12.9461L27.7423 1.3477C28.0831 0.853442 27.7307 0.178711 27.1324 0.178711H19.3335ZM30.7603 0.179339C30.2105 0.179339 29.7648 0.626736 29.7648 1.17862V25.9329C29.7648 26.4847 30.2105 26.9321 30.7603 26.9321H37.1892C37.7393 26.9321 38.185 26.4847 38.185 25.9329V1.17862C38.185 0.626736 37.7393 0.179339 37.1892 0.179339H30.7603Z" fill="url(#paint0_linear_0_120)"/>
<path d="M0.667847 41.176H4.08468C4.27677 42.1117 4.73916 42.7317 5.47122 43.0359C6.20361 43.3405 7.28703 43.4925 8.72184 43.4925C10.2156 43.4925 11.318 43.3257 12.028 42.9914C12.738 42.6577 13.0931 42.1117 13.0931 41.3544C13.0931 40.3447 12.4566 39.7544 11.1849 39.5839C9.9125 39.4131 8.52219 39.257 7.01358 39.1158C5.50465 38.9749 4.11402 38.6367 2.84229 38.1027C1.56992 37.5679 0.934053 36.4466 0.934053 34.7391C0.934053 33.1058 1.59957 31.9182 2.93091 31.1754C4.26225 30.4329 6.11844 30.0615 8.5001 30.0615C10.8666 30.0615 12.6935 30.4219 13.9807 31.1421C15.2675 31.8625 15.9848 33.0464 16.1327 34.6944H12.7159C12.6121 33.8629 12.1869 33.3025 11.44 33.0132C10.6928 32.7234 9.71285 32.5788 8.5001 32.5788C7.08012 32.5788 6.01499 32.7272 5.305 33.0242C4.59501 33.3212 4.24018 33.8705 4.24018 34.6722C4.24018 35.6228 4.87572 36.1798 6.1481 36.3428C7.42014 36.5065 8.81078 36.6623 10.3194 36.8108C11.8283 36.9592 13.2186 37.3006 14.4907 37.835C15.7628 38.3698 16.399 39.4762 16.399 41.154C16.399 42.8615 15.7741 44.0979 14.5241 44.8626C13.2738 45.6276 11.3473 46.0098 8.74424 46.0098C6.09605 46.0098 4.13262 45.6345 2.85333 44.8848C1.5737 44.1353 0.845107 42.8989 0.667847 41.176Z" fill="#231F20"/>
<path d="M27.3592 45.7192V38.837C27.3592 37.8867 27.1338 37.2481 26.6823 36.9214C26.231 36.5949 25.5917 36.4312 24.7635 36.4312C23.9497 36.4312 23.2801 36.6134 22.7552 36.9771C22.23 37.3409 21.9676 37.9758 21.9676 38.8813V45.7192H18.7725V34.4936H21.879V36.3866C22.219 35.6594 22.7701 35.1137 23.5318 34.7493C24.2934 34.3859 25.1479 34.2041 26.0944 34.2041C27.1296 34.2041 27.999 34.382 28.7016 34.7383C29.4041 35.0948 29.9034 35.6738 30.1993 36.4759C30.5543 35.7185 31.1312 35.1505 31.9298 34.7718C32.7288 34.3932 33.6457 34.2041 34.6812 34.2041C36.1457 34.2041 37.2552 34.5527 38.0094 35.2506C38.7639 35.949 39.1411 37.0626 39.1411 38.5917V45.7192H35.946V38.837C35.946 37.8867 35.7167 37.2481 35.2581 36.9214C34.7995 36.5949 34.156 36.4312 33.3278 36.4312C32.5292 36.4312 31.8671 36.6095 31.3419 36.9657C30.8168 37.3219 30.5543 37.9682 30.5543 38.9038V45.7192H27.3592Z" fill="#231F20"/>
<path d="M44.5328 42.4896C44.5328 42.9798 44.7249 43.34 45.1097 43.5699C45.4943 43.8005 46.1083 43.9151 46.9514 43.9151C48.0903 43.9151 49.0407 43.6966 49.8027 43.2581C50.5642 42.8206 50.9451 42.1036 50.9451 41.1088V40.6854L46.9294 40.8195C46.1008 40.8637 45.4943 40.9901 45.1097 41.1977C44.7249 41.4058 44.5328 41.7623 44.5328 42.267V42.4896ZM41.3157 42.6457C41.3157 41.5764 41.6929 40.7416 42.4474 40.1399C43.2015 39.5387 44.4588 39.2008 46.2194 39.1265L50.9451 38.9706V38.5917C50.9451 37.7601 50.6972 37.1699 50.202 36.8213C49.7063 36.4724 48.9555 36.2977 47.9497 36.2977C47.0624 36.2977 46.3708 36.4167 45.8753 36.6539C45.3797 36.8916 45.0652 37.2928 44.9324 37.8567H41.715C41.8926 36.6539 42.4915 35.7444 43.5123 35.1283C44.5328 34.5125 46.0117 34.2041 47.9497 34.2041C50.0206 34.2041 51.57 34.5603 52.5982 35.2731C53.6261 35.9858 54.1403 37.092 54.1403 38.5917V45.7192H51.0782V43.8483C50.6641 44.5316 50.0279 45.0623 49.1703 45.4409C48.3122 45.8196 47.247 46.0089 45.9752 46.0089C44.3477 46.0089 43.1647 45.7046 42.4249 45.0955C41.6853 44.4872 41.3157 43.6703 41.3157 42.6457Z" fill="#231F20"/>
<path d="M57.0244 34.4941H60.1305V36.7659C60.4112 36.0386 60.8774 35.4778 61.5285 35.0842C62.1792 34.6911 62.9929 34.4941 63.9694 34.4941H65.7883V37.1668H63.503C62.3497 37.1668 61.5136 37.3782 60.996 37.8015C60.4778 38.2249 60.2195 38.9192 60.2195 39.884V45.7198H57.0244V34.4941Z" fill="#231F20"/>
<path d="M68.1403 42.1557V36.8546H66.6538V34.4936H68.1403V31.0635H71.3575V34.4936H75.2846V36.8546H71.3575V41.8212C71.3575 42.3416 71.4868 42.7275 71.746 42.9799C72.0044 43.2322 72.4447 43.3586 73.066 43.3586H75.2846V45.7193H71.7791C70.4923 45.7193 69.5641 45.4374 68.9945 44.873C68.4247 44.3087 68.1403 43.4028 68.1403 42.1557Z" fill="#231F20"/>
<path d="M87.5317 33.091H81.3635V30.3516H97.0505V33.091H90.8819V45.72H87.5317V33.091Z" fill="#231F20"/>
<path d="M97.4277 30.3516H101.022L106.547 43.27L112.116 30.3516H115.245L108.588 45.72H104.062L97.4277 30.3516Z" fill="#231F20"/>
</g>
<defs>
<linearGradient id="paint0_linear_0_120" x1="50.5543" y1="39.5642" x2="67.7269" y2="-24.4106" gradientUnits="userSpaceOnUse">
<stop stop-color="#4072B6"/>
<stop offset="0.035967" stop-color="#4072B6"/>
<stop offset="0.199528" stop-color="#38338A"/>
<stop offset="0.247265" stop-color="#38338A"/>
<stop offset="0.249812" stop-color="#38338A"/>
<stop offset="0.472281" stop-color="#C2307E"/>
<stop offset="0.610556" stop-color="#D62E27"/>
<stop offset="0.997315" stop-color="#D62E27"/>
<stop offset="1" stop-color="#D62E27"/>
</linearGradient>
<clipPath id="clip0_0_120">
<rect width="114.577" height="45.8307" fill="white" transform="translate(0.667908 0.178711)"/>
</clipPath>
</defs>
</svg>
