<svg width="35" height="35" viewBox="0 0 35 35" fill="none" xmlns="http://www.w3.org/2000/svg">
<path d="M29.3122 5.14438C26.1209 1.96409 21.8657 0.197266 17.3741 0.197266C8.03644 0.197266 0.471713 7.73573 0.471713 17.041C0.471713 19.9857 1.29911 22.9304 2.71749 25.404L0.353516 34.1203L9.33663 31.7646C11.8188 33.0602 14.5374 33.767 17.3741 33.767C26.7119 33.767 34.2766 26.2285 34.2766 16.9232C34.1584 12.5651 32.5036 8.32467 29.3122 5.14438ZM25.5299 23.0482C25.1753 23.9905 23.5205 24.9328 22.6931 25.0506C21.9839 25.1684 21.0383 25.1684 20.0927 24.9328C19.5017 24.6973 18.6743 24.4617 17.7288 23.9905C13.4736 22.2237 10.755 17.9833 10.5186 17.63C10.2822 17.3944 8.74564 15.392 8.74564 13.2718C8.74564 11.1516 9.80942 10.2093 10.164 9.73813C10.5186 9.26698 10.9914 9.26698 11.346 9.26698C11.5824 9.26698 11.937 9.26698 12.1734 9.26698C12.4098 9.26698 12.7644 9.14919 13.119 9.97371C13.4736 10.7982 14.301 12.9184 14.4192 13.0362C14.5374 13.2718 14.5374 13.5074 14.4192 13.7429C14.301 13.9785 14.1828 14.2141 13.9464 14.4497C13.71 14.6852 13.4736 15.0386 13.3554 15.1564C13.119 15.392 12.8826 15.6276 13.119 15.9809C13.3554 16.4521 14.1828 17.7477 15.483 18.9256C17.1378 20.3391 18.4379 20.8102 18.9107 21.0458C19.3835 21.2814 19.6199 21.1636 19.8563 20.928C20.0927 20.6925 20.9201 19.7502 21.1565 19.279C21.3929 18.8078 21.7475 18.9256 22.1021 19.0434C22.4567 19.1612 24.5843 20.2213 24.9389 20.4569C25.4117 20.6925 25.6481 20.8102 25.7663 20.928C25.8845 21.2814 25.8845 22.1059 25.5299 23.0482Z" fill="white"/>
</svg>
